# xmcd CD database file
#
# Track frame offsets:
#	150
#	2796
#	24936
#	43746
#	69974
#	93401
#	120631
#	140549
#	160524
#
# Disc length: 2394 seconds
#
# Revision: 0
# Processed by: cddbd v1.5.1PL0 Copyright (c) Steve Scherf et al.
# Submitted via: CDex 1.51
#
DISCID=67095809
DTITLE=Jamey Aebersold - Vol. 30b - Rythm Session Workout
DYEAR=1900
DGENRE=Jazz
TTITLE0=Tunning Notes
TTITLE1=Tippin' Time
TTITLE2=Bye, Bye, Boston
TTITLE3=Bossa for Cheryl
TTITLE4=Fast Mode Al
TTITLE5=Lady's Bounce
TTITLE6=Scott's Waltz
TTITLE7=Reflection
TTITLE8=Samba de Luvsme
EXTD=
EXTT0=
EXTT1=
EXTT2=
EXTT3=
EXTT4=
EXTT5=
EXTT6=
EXTT7=
EXTT8=
PLAYORDER=
